<?xml version="1.0" encoding="UTF-8" standalone="no"?> <svg xmlns="http://www.w3.org/2000/svg" viewBox="0 0 64 64"><defs><style>.cls-1{fill:#9c88ff;}</style></defs><g id="Layer_4" data-name="Layer 4"><path class="cls-1" d="M32,8h0A24,24,0,0,0,8,32H8A24,24,0,0,0,32,56h0A24,24,0,0,0,56,32h0A24,24,0,0,0,32,8Zm8.59,39.55a2.72,2.72,0,1,1,2.71-2.72A2.72,2.72,0,0,1,40.59,47.55Zm0-7.44A4.72,4.72,0,0,0,36,43.83H24.75a3.25,3.25,0,0,1-3.25-3.24V24.34a3.26,3.26,0,0,1,3.25-3.25H45.08a3.25,3.25,0,0,1,3.24,3.25V40.59a3.24,3.24,0,0,1-3.13,3.23A4.72,4.72,0,0,0,40.59,40.11ZM30.82,16.73h2.36A2.92,2.92,0,0,1,36,19.09H28A2.92,2.92,0,0,1,30.82,16.73Zm-11.9,4.36h1.74a5.24,5.24,0,0,0-1.16,3.25V40.59a5.19,5.19,0,0,0,1.16,3.24H18.92a3.25,3.25,0,0,1-3.24-3.24V24.34A3.25,3.25,0,0,1,18.92,21.09Z"/><path class="cls-1" d="M32,25.64a6.82,6.82,0,1,0,6.82,6.82A6.83,6.83,0,0,0,32,25.64Zm0,11.64a4.82,4.82,0,1,1,4.82-4.82A4.82,4.82,0,0,1,32,37.28Z"/></g></svg>